<svg xmlns="http://www.w3.org/2000/svg" width="305" height="379" fill="none"><path fill="#fff" d="M98.954 83.811c9.185 0 17.757.69 25.717 2.067 8.113 1.225 16.379 3.674 24.798 7.348 8.419 3.674 15.537 8.419 21.354 14.236 5.97 5.817 10.792 13.623 14.466 23.42 3.827 9.797 5.74 21.125 5.74 33.983 0 25.87-8.189 45.693-24.568 59.47C150.235 238.112 126.891 245 96.428 245c-11.94 0-22.96-1.454-33.064-4.363-9.95-3.061-18.369-7.118-25.257-12.169-6.889-5.052-12.782-10.945-17.68-17.68-4.746-6.889-8.266-14.083-10.563-21.584-2.143-7.501-3.214-15.308-3.214-23.421 0-25.257 8.266-45.233 24.798-59.929C47.98 91.159 70.482 83.811 98.954 83.811Zm0 119.629h5.97c1.531 0 3.674-.23 6.429-.689 2.909-.612 5.281-1.378 7.118-2.296 1.99-.918 4.133-2.296 6.43-4.133 2.449-1.837 4.362-4.056 5.74-6.659 1.378-2.755 2.526-6.199 3.444-10.332 1.072-4.286 1.607-9.108 1.607-14.466 0-5.358-.535-10.18-1.607-14.466-.918-4.439-2.066-7.96-3.444-10.562-1.378-2.755-3.291-5.128-5.74-7.118-2.297-1.99-4.44-3.444-6.43-4.362-1.837-.919-4.209-1.608-7.118-2.067-2.755-.459-4.898-.689-6.429-.689-1.531-.153-3.521-.229-5.97-.229H95.51c-.765 0-2.067.076-3.903.229-1.837.153-3.445.459-4.822.919-1.225.306-2.832.765-4.822 1.377-1.837.613-3.444 1.454-4.822 2.526a241.21 241.21 0 0 0-4.592 3.674c-1.684 1.378-3.062 3.138-4.133 5.281a91.211 91.211 0 0 0-3.215 6.659c-.918 2.449-1.684 5.357-2.296 8.725-.46 3.368-.689 7.041-.689 11.021 0 5.205.46 9.874 1.378 14.007.918 3.98 2.066 7.271 3.444 9.873 1.378 2.603 3.215 4.899 5.51 6.889 2.297 1.837 4.363 3.214 6.2 4.133 1.837.765 4.21 1.454 7.118 2.066 2.909.459 5.128.689 6.66.689h6.428ZM235.543 198.675c0 4.115-.9 7.651-2.7 10.608-1.736 2.894-4.34 5.079-7.812 6.558-3.407 1.479-7.554 2.218-12.44 2.218-3.665 0-6.944-.546-9.837-1.639-2.829-1.093-5.111-2.54-6.847-4.34a20.729 20.729 0 0 1-3.857-6.172 18.786 18.786 0 0 1-1.351-7.04c0-4.05.901-7.586 2.701-10.608 1.864-3.022 4.468-5.336 7.811-6.943 3.408-1.608 7.394-2.411 11.958-2.411 2.251 0 4.34.16 6.269.482 1.929.321 3.922.932 5.979 1.832s3.793 2.057 5.208 3.472c1.478 1.414 2.668 3.311 3.568 5.69.9 2.378 1.35 5.143 1.35 8.293Zm-28.063 0c0 1.35.16 2.476.482 3.376.386.835.932 1.414 1.639 1.735.707.322 1.286.515 1.736.579.45.064 1.061.097 1.832.097.708 0 1.286-.033 1.736-.097.45-.064 1.029-.257 1.736-.579.707-.321 1.222-.9 1.543-1.735.386-.9.579-2.058.579-3.472 0-1.415-.193-2.572-.579-3.472-.321-.9-.836-1.511-1.543-1.832-.707-.322-1.286-.515-1.736-.579-.45-.128-1.028-.193-1.736-.193-.578 0-1.093.065-1.543.193-.45.064-1.06.257-1.832.579-.707.321-1.286.964-1.736 1.929-.386.9-.578 2.057-.578 3.471Zm72.231 8.68c2.251 0 4.34.16 6.269.482 1.993.321 3.986.932 5.979 1.832 2.057.836 3.793 1.961 5.208 3.375 1.478 1.415 2.668 3.344 3.568 5.787.9 2.379 1.35 5.111 1.35 8.197 0 6.301-1.993 11.122-5.979 14.466-3.922 3.343-9.58 5.014-16.973 5.014-3.665 0-6.944-.546-9.837-1.639-2.829-1.093-5.111-2.54-6.847-4.34a20.732 20.732 0 0 1-3.858-6.172c-.835-2.25-1.253-4.629-1.253-7.136 0-6.108 1.993-10.93 5.979-14.466 4.05-3.6 9.515-5.4 16.394-5.4Zm0 25.556c.708 0 1.286-.033 1.736-.097.45-.128 1.029-.353 1.736-.675.707-.321 1.254-.9 1.64-1.736.385-.9.578-2.025.578-3.375 0-1.415-.193-2.572-.578-3.472-.386-.9-.933-1.511-1.64-1.832-.707-.386-1.286-.611-1.736-.675-.45-.065-1.028-.097-1.736-.097-.578 0-1.093.065-1.543.193-.45.065-1.028.257-1.736.579-.707.321-1.285.964-1.735 1.929-.386.9-.579 2.057-.579 3.471 0 1.35.161 2.476.482 3.376.386.835.9 1.414 1.543 1.736.707.321 1.286.514 1.736.578.45.064 1.061.097 1.832.097Zm-18.13-54.005h25.942l-55.548 67.602h-25.942l55.548-67.602Z"/></svg>