<svg xmlns="http://www.w3.org/2000/svg" width="217" height="205"  viewBox="0 0 217 205" fill="none"><path fill="#fff" d="M69.968 59.594c6.518 0 12.603.49 18.252 1.467 5.759.87 11.626 2.608 17.601 5.215 5.976 2.608 11.028 5.976 15.156 10.105 4.238 4.128 7.66 9.67 10.268 16.623 2.716 6.953 4.074 14.993 4.074 24.119 0 18.362-5.813 32.431-17.438 42.21C106.364 169.111 89.796 174 68.175 174c-8.475 0-16.297-1.032-23.468-3.096-7.062-2.173-13.038-5.053-17.927-8.638-4.889-3.585-9.072-7.768-12.549-12.549-3.368-4.889-5.866-9.995-7.496-15.319-1.521-5.324-2.282-10.865-2.282-16.623 0-17.927 5.867-32.105 17.601-42.535C33.788 64.81 49.76 59.595 69.967 59.595Zm0 84.908h4.237c1.086 0 2.607-.163 4.563-.489 2.064-.434 3.748-.977 5.052-1.629 1.413-.652 2.934-1.63 4.563-2.934 1.739-1.304 3.097-2.879 4.075-4.726.977-1.956 1.792-4.4 2.444-7.334.76-3.042 1.14-6.464 1.14-10.267 0-3.802-.38-7.225-1.14-10.267-.652-3.151-1.467-5.65-2.445-7.497a15.222 15.222 0 0 0-4.074-5.052c-1.63-1.412-3.15-2.444-4.563-3.096-1.304-.652-2.988-1.141-5.052-1.467-1.956-.326-3.477-.489-4.563-.489-1.087-.108-2.5-.163-4.237-.163h-2.445c-.543 0-1.467.055-2.77.163-1.304.109-2.445.326-3.423.652-.87.217-2.01.543-3.422.978-1.304.434-2.445 1.032-3.423 1.793-.977.76-2.064 1.63-3.26 2.607-1.194.978-2.172 2.227-2.933 3.748a64.666 64.666 0 0 0-2.281 4.727c-.652 1.738-1.195 3.802-1.63 6.192-.326 2.391-.489 4.998-.489 7.823 0 3.694.326 7.008.978 9.941.652 2.825 1.467 5.161 2.445 7.008a16.88 16.88 0 0 0 3.91 4.889c1.63 1.304 3.097 2.282 4.401 2.934 1.304.543 2.988 1.032 5.052 1.466 2.065.326 3.64.489 4.726.489h4.564ZM167.158 116.461c0 2.92-.639 5.43-1.916 7.529-1.232 2.054-3.08 3.605-5.544 4.655-2.419 1.049-5.362 1.574-8.83 1.574-2.601 0-4.928-.388-6.982-1.164-2.008-.775-3.628-1.802-4.86-3.08a14.715 14.715 0 0 1-2.738-4.38 13.35 13.35 0 0 1-.958-4.997c0-2.875.639-5.385 1.917-7.529 1.323-2.145 3.171-3.788 5.544-4.929 2.418-1.14 5.248-1.711 8.487-1.711 1.598 0 3.081.114 4.45.342 1.369.229 2.783.662 4.243 1.301 1.461.639 2.693 1.46 3.697 2.464 1.049 1.004 1.893 2.35 2.532 4.039.639 1.688.958 3.65.958 5.886Zm-19.918 0c0 .958.114 1.757.342 2.396.274.593.662 1.004 1.164 1.232.502.228.913.365 1.232.41.319.046.753.069 1.3.069.502 0 .913-.023 1.233-.069.319-.045.73-.182 1.232-.41.502-.228.867-.639 1.095-1.232.274-.639.41-1.461.41-2.464 0-1.004-.136-1.826-.41-2.465-.228-.638-.593-1.072-1.095-1.3-.502-.228-.913-.365-1.232-.411-.32-.091-.731-.137-1.233-.137-.41 0-.775.046-1.095.137-.319.046-.753.183-1.3.411-.502.228-.913.684-1.232 1.369-.274.639-.411 1.46-.411 2.464Zm51.267 6.16c1.598 0 3.081.114 4.45.343 1.414.228 2.829.661 4.243 1.3 1.461.593 2.693 1.392 3.696 2.396 1.05 1.004 1.894 2.373 2.533 4.107.639 1.688.958 3.627.958 5.818 0 4.472-1.414 7.894-4.243 10.267-2.784 2.373-6.8 3.559-12.047 3.559-2.601 0-4.929-.388-6.982-1.163-2.008-.776-3.628-1.803-4.86-3.081a14.715 14.715 0 0 1-2.738-4.38 14.434 14.434 0 0 1-.889-5.065c0-4.335 1.414-7.758 4.243-10.268 2.875-2.555 6.754-3.833 11.636-3.833Zm0 18.139c.502 0 .913-.023 1.232-.068.32-.092.731-.251 1.233-.48.501-.228.889-.638 1.163-1.232.274-.638.411-1.437.411-2.395 0-1.004-.137-1.826-.411-2.464-.274-.639-.662-1.073-1.163-1.301-.502-.274-.913-.433-1.233-.479a8.94 8.94 0 0 0-1.232-.069c-.41 0-.775.046-1.095.137-.319.046-.73.183-1.232.411-.502.228-.912.685-1.232 1.369-.274.639-.411 1.46-.411 2.464 0 .958.115 1.757.343 2.396.273.593.639 1.004 1.095 1.232.502.228.912.365 1.232.411a9.78 9.78 0 0 0 1.3.068Zm-12.868-38.331h18.413l-39.426 47.982h-18.413l39.426-47.982Z"/></svg>