<svg width="158" height="38" fill="none" xmlns="http://www.w3.org/2000/svg"><path d="m42.657 8.394-.045.183h-5.765l.346-1.51a1.13 1.13 0 0 0-.19-.926.997.997 0 0 0-.804-.4H10.324c-.48 0-.883.331-.995.823L5.642 22.379c-.078.332 0 .663.202.926.2.264.48.4.804.4h25.875c.48 0 .883-.33.995-.823l1.083-5.066h5.765l-1.385 6.404c-.715 3.076-3.374 5.226-6.458 5.226H6.637c-2.034 0-3.933-.937-5.195-2.584a6.88 6.88 0 0 1-1.252-5.81L3.866 5.227C4.581 2.15 7.24 0 10.324 0H36.21c2.045 0 3.933.938 5.195 2.584 1.274 1.647 1.72 3.774 1.252 5.81Z" fill="#fff"/><path d="m53.281 16.97-3.687 15.816c-.715 3.076-3.374 5.225-6.457 5.225H17.273c-2.045 0-3.933-.937-5.207-2.584-1.273-1.647-1.72-3.774-1.251-5.81l.045-.182h5.765l-.358 1.51c-.078.331 0 .663.201.926s.48.4.805.4h25.886c.492 0 .883-.332 1.006-.823l3.687-15.816c.078-.331 0-.663-.202-.926a.981.981 0 0 0-.804-.4H20.948c-.48 0-.882.331-1.005.823l-1.274 5.123h-5.765l1.587-6.45c.715-3.075 3.374-5.225 6.457-5.225h25.887c2.033 0 3.932.937 5.195 2.584a6.888 6.888 0 0 1 1.251 5.81ZM62.722 25.467c-1.263-1.258-1.9-3.008-1.9-5.238 0-1.704.347-3.328 1.05-4.871.705-1.544 1.721-2.802 3.05-3.751 1.342-.96 2.895-1.43 4.682-1.43 2.346 0 4.167.63 5.475 1.887 1.307 1.258 1.955 3.008 1.955 5.238 0 .583-.034 1.12-.112 1.59-.067.468-.123.788-.134.96H65.046c-.023.297-.034.583-.034.846 0 1.075.313 1.887.928 2.447.614.56 1.474.835 2.592.835.659 0 1.25-.183 1.776-.537.525-.355 1.017-.927 1.497-1.704h4.38c-.715 1.955-1.732 3.385-3.05 4.277-1.319.892-3.04 1.338-5.173 1.338-2.134 0-3.955-.63-5.229-1.887m10.089-8.451v-.126c0-1.11-.246-1.955-.726-2.504-.48-.56-1.24-.835-2.268-.835-1.151 0-2.067.32-2.76.972-.693.652-1.207 1.487-1.553 2.493h7.307ZM81.246 10.612h4.19l-.492 2.276h.067c.804-1.007 1.676-1.716 2.636-2.116.961-.4 1.933-.595 2.939-.595 1.497 0 2.648.378 3.452 1.133.805.754 1.207 1.83 1.207 3.213 0 .332-.034.663-.09.995-.067.32-.1.549-.123.674L92.81 26.92h-4.38l1.945-9.526c.022-.08.067-.354.156-.8.078-.458.123-.8.123-1.052 0-.526-.201-.96-.615-1.304a2.245 2.245 0 0 0-1.474-.526c-1.129 0-2.09.412-2.872 1.235-.782.823-1.33 1.978-1.63 3.465l-1.755 8.52h-4.38l3.33-16.308-.011-.011ZM99.11 25.467c-1.262-1.258-1.899-3.008-1.899-5.238 0-1.704.346-3.328 1.05-4.871.704-1.544 1.72-2.802 3.05-3.751 1.341-.96 2.894-1.43 4.682-1.43 2.346 0 4.167.63 5.474 1.887 1.307 1.258 1.955 3.008 1.955 5.238 0 .583-.033 1.12-.112 1.59-.067.468-.122.788-.134.96h-11.742a11.57 11.57 0 0 0-.033.846c0 1.075.313 1.887.927 2.447.614.56 1.475.835 2.592.835.659 0 1.251-.183 1.776-.537.526-.355 1.017-.927 1.498-1.704h4.379c-.715 1.955-1.732 3.385-3.05 4.277-1.318.892-3.039 1.338-5.173 1.338s-3.955-.63-5.228-1.887m10.088-8.451v-.126c0-1.11-.246-1.955-.726-2.504-.48-.56-1.24-.835-2.268-.835-1.151 0-2.067.32-2.76.972-.692.652-1.206 1.487-1.553 2.493h7.307ZM115.969 31.676c-1.251-.949-1.876-2.252-1.876-3.91h4.379c0 .777.268 1.36.816 1.749.547.389 1.229.583 2.044.583.76 0 1.397-.183 1.911-.537.514-.355.972-.938 1.374-1.738.402-.8.782-1.922 1.151-3.374v-.034l-.067-.069c-.637.858-1.33 1.464-2.078 1.796a5.64 5.64 0 0 1-2.291.503c-1.866 0-3.363-.595-4.469-1.796-1.106-1.2-1.664-2.813-1.664-4.86 0-1.6.324-3.156.972-4.665.648-1.51 1.586-2.756 2.804-3.717 1.218-.972 2.648-1.452 4.268-1.452 1.374 0 2.446.274 3.206.835.76.56 1.319 1.258 1.665 2.092h.067l.491-2.493h4.19l-3.206 15.553c-.369 1.852-.972 3.282-1.799 4.288-.827 1.006-1.844 1.704-3.017 2.081-1.184.377-2.48.572-3.899.572-2.056 0-3.709-.469-4.96-1.418m9.932-10.27c.849-1.246 1.274-2.698 1.274-4.333 0-1.11-.269-1.979-.816-2.608-.547-.617-1.318-.926-2.324-.926-1.296 0-2.357.64-3.206 1.921a7.565 7.565 0 0 0-1.263 4.231c0 1.098.257 1.967.782 2.62.525.651 1.252.971 2.168.971 1.396 0 2.525-.629 3.374-1.875M136.56 10.612h4.402l-3.385 16.307h-4.402l3.385-16.307Zm1.296-6.21h4.402l-.804 3.694h-4.402l.804-3.693ZM146.66 18.182l-3.597-7.57h4.681l1.754 4.7 3.609-4.7H158l-6.625 7.822 4.044 8.485h-4.625l-2.313-5.363-4.257 5.363h-4.96l7.396-8.737ZM61.95 32.374h1.878c.436 0 .77.114 1.005.343.235.229.347.549.347.983 0 .263-.067.503-.19.732a1.362 1.362 0 0 1-.592.56c-.268.15-.604.218-1.017.218h-1.385l-.403 1.967h-.625l.983-4.803Zm1.61 2.298c.301 0 .547-.091.737-.263.19-.171.28-.411.28-.709 0-.251-.068-.446-.202-.583-.134-.137-.313-.206-.547-.206h-1.34l-.358 1.761h1.44-.01ZM68.99 32.374h.681l.85 4.803h-.649l-.212-1.441h-1.978l-.826 1.44h-.693l2.827-4.802Zm.592 2.813-.347-2.253h-.01l-1.252 2.253h1.62-.011ZM74.073 35.244l-1.229-2.87h.66l.96 2.333 1.776-2.333h.727l-2.268 2.87-.414 1.933h-.614l.402-1.933ZM79.425 32.374h.871l.614 4.128h.023l2.313-4.128h.871l-.994 4.803h-.593l.95-4.197h-.011l-2.39 4.197h-.593l-.615-4.197h-.01l-.828 4.197h-.592l.984-4.803ZM87.122 32.374h3.23l-.101.537h-2.615l-.313 1.533h2.425l-.1.537h-2.436l-.347 1.658h2.648l-.123.538h-3.262l.994-4.803ZM93.1 32.374h.67l1.676 3.98h.01l.783-3.98h.614l-.994 4.803h-.67l-1.665-3.946h-.011l-.805 3.946h-.603l.995-4.803ZM100.753 32.911h-1.576l.112-.537h3.776l-.111.537h-1.576l-.882 4.266h-.626l.883-4.266ZM108.54 33.723v.069h-.626v-.046c0-.32-.089-.56-.257-.709-.167-.16-.447-.24-.815-.24-.291 0-.548.069-.76.206a.64.64 0 0 0-.324.583c0 .206.067.366.19.48.123.126.324.217.603.298l.604.16c.368.103.648.251.837.446.202.206.291.48.291.846 0 .309-.089.572-.268.8a1.703 1.703 0 0 1-.682.504 2.288 2.288 0 0 1-.882.171c-.592 0-1.039-.126-1.363-.389-.324-.263-.492-.64-.492-1.12v-.172h.626v.08c0 .366.1.629.313.812.212.171.525.263.938.263.358 0 .637-.08.86-.252a.818.818 0 0 0 .324-.674c0-.229-.078-.4-.223-.515a1.836 1.836 0 0 0-.615-.274l-.514-.137c-.391-.103-.681-.264-.882-.458-.19-.194-.291-.457-.291-.789 0-.297.079-.56.246-.766.168-.206.38-.366.637-.469.268-.103.536-.16.827-.16.514 0 .927.126 1.229.389.301.263.458.617.458 1.075" fill="#fff"/></svg>