<svg width="112" height="26" fill="none" xmlns="http://www.w3.org/2000/svg"><path d="m30.238 5.743-.032.125H26.12l.245-1.033a.752.752 0 0 0-.134-.633.716.716 0 0 0-.57-.274H7.317a.717.717 0 0 0-.705.563L4 15.312a.73.73 0 0 0 .143.634c.142.18.34.274.57.274h18.342c.34 0 .625-.227.705-.564l.768-3.466h4.086l-.982 4.382c-.507 2.105-2.392 3.576-4.577 3.576H4.705a4.677 4.677 0 0 1-3.683-1.769 4.58 4.58 0 0 1-.887-3.975L2.741 3.577C3.248 1.47 5.132 0 7.318 0h18.35c1.45 0 2.788.642 3.683 1.768a4.611 4.611 0 0 1 .887 3.975Z" fill="#fff"/><path d="m37.769 11.611-2.613 10.821c-.507 2.105-2.392 3.576-4.578 3.576H12.244a4.693 4.693 0 0 1-3.69-1.768 4.612 4.612 0 0 1-.888-3.975l.032-.125h4.087l-.254 1.032a.73.73 0 0 0 .143.634c.142.18.34.274.57.274h18.35a.726.726 0 0 0 .713-.563l2.613-10.821a.73.73 0 0 0-.142-.634.705.705 0 0 0-.57-.274H14.85a.732.732 0 0 0-.713.563l-.903 3.506H9.147l1.125-4.413c.507-2.105 2.392-3.576 4.578-3.576H33.2c1.44 0 2.787.642 3.682 1.768a4.586 4.586 0 0 1 .887 3.975ZM44.461 17.425c-.895-.861-1.346-2.058-1.346-3.584 0-1.166.245-2.277.744-3.333a6.354 6.354 0 0 1 2.162-2.566c.95-.658 2.051-.978 3.319-.978 1.663 0 2.954.43 3.88 1.29.927.861 1.386 2.058 1.386 3.584 0 .4-.024.767-.079 1.088-.047.32-.087.54-.095.657h-8.324a7.5 7.5 0 0 0-.023.579c0 .735.221 1.29.657 1.674.436.384 1.045.571 1.837.571a2.26 2.26 0 0 0 1.26-.367c.372-.243.72-.634 1.06-1.166h3.105c-.507 1.338-1.227 2.316-2.162 2.926-.934.61-2.154.916-3.667.916-1.512 0-2.803-.43-3.706-1.291m7.151-5.783v-.085c0-.76-.174-1.338-.514-1.714-.34-.383-.88-.571-1.608-.571-.816 0-1.465.219-1.956.665-.491.446-.855 1.017-1.101 1.706h5.18ZM57.592 7.26h2.97l-.349 1.558h.048c.57-.689 1.188-1.174 1.869-1.448a5.514 5.514 0 0 1 2.083-.406c1.061 0 1.877.258 2.447.774.57.517.855 1.252.855 2.199 0 .227-.023.454-.063.68-.048.22-.071.376-.087.462l-1.576 7.34h-3.105l1.378-6.518c.016-.055.048-.243.111-.548.056-.313.087-.548.087-.72 0-.36-.142-.657-.435-.892a1.627 1.627 0 0 0-1.046-.36c-.8 0-1.48.282-2.035.845-.554.564-.943 1.354-1.156 2.371l-1.244 5.83H55.24L57.6 7.268l-.008-.008ZM70.255 17.425c-.894-.861-1.346-2.058-1.346-3.584 0-1.166.246-2.277.745-3.333a6.356 6.356 0 0 1 2.162-2.566c.95-.658 2.05-.978 3.318-.978 1.663 0 2.954.43 3.88 1.29.927.861 1.387 2.058 1.387 3.584 0 .4-.024.767-.08 1.088-.047.32-.087.54-.095.657h-8.323c-.016.203-.024.399-.024.579 0 .735.222 1.29.657 1.674.436.384 1.046.571 1.838.571a2.26 2.26 0 0 0 1.259-.367c.372-.243.72-.634 1.061-1.166H79.8c-.507 1.338-1.228 2.316-2.162 2.926-.935.61-2.154.916-3.667.916s-2.804-.43-3.707-1.291m7.152-5.783v-.085c0-.76-.174-1.338-.515-1.714-.34-.383-.879-.571-1.608-.571-.815 0-1.465.219-1.956.665-.49.446-.855 1.017-1.1 1.706h5.179ZM82.206 21.673c-.887-.65-1.33-1.541-1.33-2.676h3.104c0 .532.19.931.578 1.198.388.265.871.398 1.45.398.538 0 .99-.125 1.354-.367.364-.243.689-.642.974-1.19.285-.547.554-1.314.816-2.308v-.023l-.048-.047c-.451.587-.942 1.001-1.473 1.228a4.117 4.117 0 0 1-1.623.345c-1.323 0-2.384-.407-3.168-1.229-.784-.821-1.18-1.925-1.18-3.325 0-1.095.23-2.16.689-3.192a6.421 6.421 0 0 1 1.988-2.543c.863-.665 1.877-.994 3.025-.994.974 0 1.734.188 2.273.571.538.384.934.86 1.18 1.432h.047l.349-1.706h2.97l-2.273 10.641c-.261 1.268-.69 2.246-1.275 2.934a4.544 4.544 0 0 1-2.138 1.424 9.353 9.353 0 0 1-2.764.392c-1.458 0-2.63-.321-3.517-.97m7.04-7.027c.603-.853.904-1.846.904-2.965 0-.76-.19-1.354-.579-1.784-.388-.423-.934-.634-1.647-.634-.919 0-1.67.438-2.273 1.315a5.048 5.048 0 0 0-.895 2.895c0 .75.182 1.345.555 1.791.372.446.887.665 1.536.665.99 0 1.79-.43 2.392-1.283M96.802 7.26h3.12l-2.4 11.158h-3.12l2.4-11.157Zm.919-4.248h3.12l-.57 2.527h-3.12l.57-2.527ZM103.962 12.44l-2.551-5.179h3.319l1.243 3.216 2.558-3.216H112l-4.696 5.352 2.867 5.805h-3.279l-1.64-3.67-3.017 3.67h-3.516l5.243-5.977ZM43.915 22.15h1.33c.309 0 .547.079.713.235.166.157.245.376.245.673 0 .18-.047.344-.134.5a.951.951 0 0 1-.42.384c-.19.102-.428.149-.72.149h-.983l-.285 1.346h-.443l.697-3.287Zm1.14 1.573a.769.769 0 0 0 .523-.18c.134-.117.198-.281.198-.485 0-.172-.048-.305-.143-.399a.524.524 0 0 0-.388-.14h-.95l-.254 1.204h1.022-.008ZM48.904 22.15h.483l.602 3.287h-.46l-.15-.986h-1.401l-.587.986h-.49l2.003-3.287Zm.42 1.925-.246-1.541h-.008l-.887 1.541h1.149-.008ZM52.507 24.114l-.87-1.963h.466l.682 1.596 1.259-1.596h.515l-1.608 1.963-.293 1.323h-.436l.285-1.323ZM56.301 22.15h.618l.435 2.825h.016l1.64-2.825h.617l-.705 3.287h-.42l.674-2.872h-.008l-1.695 2.872h-.42l-.435-2.872h-.008l-.586 2.872h-.42l.697-3.287ZM61.758 22.15h2.288l-.07.368h-1.854l-.222 1.049h1.719l-.072.367h-1.726l-.246 1.135h1.877l-.087.368h-2.312l.705-3.287ZM65.995 22.15h.475l1.188 2.723h.008l.554-2.723h.436l-.705 3.287h-.475l-1.18-2.7h-.008l-.57 2.7h-.428l.705-3.287ZM71.42 22.518h-1.117l.08-.367h2.676l-.08.367h-1.116l-.626 2.919h-.443l.626-2.919ZM76.94 23.074v.047h-.444v-.032c0-.219-.063-.383-.182-.485-.119-.11-.317-.164-.578-.164-.206 0-.388.047-.539.14a.434.434 0 0 0-.23.4c0 .14.048.25.135.328.087.087.23.15.428.204l.428.11c.261.07.459.172.594.305.142.14.205.328.205.579a.84.84 0 0 1-.19.547 1.207 1.207 0 0 1-.483.345 1.678 1.678 0 0 1-.625.117c-.42 0-.737-.086-.966-.266-.23-.18-.349-.438-.349-.767v-.117h.444v.055c0 .25.07.43.221.555.15.117.373.18.666.18.253 0 .451-.055.61-.172a.555.555 0 0 0 .229-.462.417.417 0 0 0-.158-.352 1.315 1.315 0 0 0-.436-.188l-.364-.094c-.277-.07-.483-.18-.626-.313a.727.727 0 0 1-.206-.54c0-.203.056-.383.174-.524.12-.14.27-.25.452-.32.19-.07.38-.11.586-.11.364 0 .657.086.871.266.214.18.325.423.325.736" fill="#fff"/></svg>