<svg width="46" height="46" viewBox="0 0 46 46" fill="none" xmlns="http://www.w3.org/2000/svg">
<circle cx="23" cy="23" r="23" fill="white"/>
<path fill-rule="evenodd" clip-rule="evenodd" d="M14.9072 8.0931C14.9072 8.14436 15.1762 8.49554 15.5048 8.87335L16.1026 9.5605L15.2373 10.0725C13.8063 10.9192 11.4139 13.3274 10.4449 14.8969C8.72779 17.6781 7.81113 21.1605 8.03266 24.0603C8.2639 27.088 9.12424 29.3915 10.5683 30.8493C11.8403 32.1335 12.2378 32.2288 16.2396 32.2088C19.153 32.1944 22.6876 31.9501 21.3945 31.8528C19.8932 31.7395 16.7943 28.7781 15.5488 26.2659C14.5348 24.2205 14.3279 22.8428 14.7857 21.1808C15.3584 19.1007 16.6595 17.4693 18.923 15.9923L20.1375 15.1998L20.5167 15.8045C20.7253 16.1371 20.9665 16.4092 21.0528 16.4092C21.1726 16.4092 23.2016 11.4347 24.34 8.35038C24.461 8.02282 24.1588 8 19.6883 8C17.0587 8 14.9072 8.04185 14.9072 8.0931ZM24.3303 14.0334C23.4956 14.2306 22.477 15.0885 21.833 16.1369C21.6204 16.4826 20.9217 18.3297 20.2801 20.2413C19.3077 23.1383 18.7433 24.5901 17.3623 27.7463C17.1928 28.1337 19.6895 30.4869 20.8943 31.0752C22.4496 31.8346 22.7144 31.7943 23.5259 30.6747C24.3145 29.5867 24.8075 28.4577 27.525 21.5151C28.61 18.7435 29.751 16.1523 30.082 15.7088C30.4108 15.2681 31.0576 14.7143 31.5193 14.4783C32.1303 14.1657 32.2735 14.016 32.0456 13.9277C31.5559 13.7379 25.2129 13.8249 24.3303 14.0334ZM32.4573 14.7708C31.5559 15.1952 30.5675 16.2478 29.9812 17.4079C29.4848 18.3901 29.4834 18.6584 29.9719 19.1047C30.4076 19.5029 30.8874 20.857 31.0766 22.2235C31.2259 23.3007 30.8896 25.3811 30.3753 26.5636C29.9426 27.5587 28.4484 29.2275 27.2364 30.0699L26.3767 30.6671L25.8005 30.1099C25.4836 29.8034 25.1629 29.6146 25.0879 29.6904C25.0128 29.7661 24.2171 31.6518 23.3199 33.8804L21.6882 37.9326L26.3594 37.9863C28.9285 38.0159 31.0742 37.9959 31.128 37.9418C31.1815 37.8876 30.9905 37.5326 30.7033 37.1526L30.1815 36.4618L31.8162 35.1692C36.4322 31.519 37.9924 28.5034 38 23.2166C38.0055 19.4539 37.2792 17.2106 35.4862 15.4513C34.4269 14.412 33.6094 14.2284 32.4573 14.7708Z" fill="url(#paint0_linear_29_387)"/>
<defs>
<linearGradient id="paint0_linear_29_387" x1="8" y1="8" x2="38" y2="8" gradientUnits="userSpaceOnUse">
<stop stop-color="#A2539F"/>
<stop offset="0.4375" stop-color="#665EA8"/>
<stop offset="1" stop-color="#70C5A9"/>
</linearGradient>
</defs>
</svg>
