<svg width="46" height="46" viewBox="0 0 46 46" fill="none" xmlns="http://www.w3.org/2000/svg">
<circle cx="23" cy="23" r="23" fill="white"/>
<path d="M29.7692 8C27.2204 8 25.1538 10.0688 25.1538 12.6154C25.1538 15.6904 29.1923 19.8915 29.1923 24.1181H30.3462C30.3473 19.8915 34.3846 15.8115 34.3846 12.6154C34.3846 10.0688 32.3181 8 29.7692 8ZM29.7692 10.2362C30.0818 10.2363 30.3913 10.298 30.6801 10.4178C30.9688 10.5376 31.2311 10.713 31.4521 10.9342C31.673 11.1553 31.8482 11.4178 31.9677 11.7067C32.0872 11.9955 32.1486 12.3051 32.1485 12.6177C32.1483 12.9303 32.0866 13.2398 31.9668 13.5285C31.8471 13.8173 31.6716 14.0796 31.4504 14.3005C31.2293 14.5215 30.9668 14.6967 30.6779 14.8162C30.3891 14.9357 30.0795 14.9971 29.7669 14.9969C29.1355 14.9966 28.53 14.7455 28.0837 14.2987C27.6374 13.852 27.3868 13.2463 27.3871 12.6148C27.3874 11.9833 27.6386 11.3779 28.0853 10.9316C28.532 10.4853 29.1378 10.2347 29.7692 10.235V10.2362ZM22.8462 10.3077C15.2112 10.3077 9 16.5188 9 24.1538C9 31.7888 15.2112 38 22.8462 38C30.4812 38 36.6923 31.7888 36.6923 24.1538C36.6923 21.8346 36.1177 19.6585 35.1058 17.735C34.9523 18.0396 34.7977 18.3292 34.6373 18.6373C34.3338 19.2235 34.0142 19.8154 33.735 20.4038C34.0235 21.2288 34.2219 22.1012 34.3119 23H32.7981C32.715 23.3865 32.6538 23.75 32.6538 24.1181V25.3077H34.3131C34.1565 26.9344 33.652 28.5084 32.8338 29.9231H29.4462C29.7 28.8408 29.8465 27.6442 29.9504 26.4258H27.6773C27.5698 27.6063 27.3652 28.7761 27.0658 29.9231H18.6265C18.2366 28.413 18.0069 26.866 17.9412 25.3077H26.8835V24.1181C26.8745 23.7414 26.8262 23.3666 26.7392 23H17.9423C18.008 21.4417 18.2377 19.8947 18.6277 18.3846H24.7938C24.3936 17.6288 24.0203 16.8591 23.6746 16.0769H19.4204C20.3746 13.8996 21.6358 12.6154 22.8462 12.6154C22.8462 11.8135 22.9904 11.06 23.2431 10.3435C23.1104 10.3388 22.98 10.3077 22.8462 10.3077ZM18.0865 13.6608C17.627 14.4282 17.2407 15.2371 16.9327 16.0769H14.625C15.6203 15.0653 16.7938 14.2462 18.0865 13.6608ZM12.8585 18.3846H16.2462C15.8972 19.9004 15.692 21.4457 15.6335 23H11.3792C11.5353 21.3732 12.0398 19.799 12.8585 18.3846V18.3846ZM11.3792 25.3077H15.6346C15.7027 26.9519 15.915 28.5038 16.2473 29.9231H12.8585C12.0408 28.5082 11.5363 26.9343 11.3792 25.3077ZM14.625 32.2308H16.9327C17.265 33.1262 17.6538 33.9304 18.0865 34.6469C16.7938 34.0615 15.6203 33.2423 14.625 32.2308V32.2308ZM19.4204 32.2308H26.2719C25.3177 34.4081 24.0565 35.6923 22.8462 35.6923C21.6358 35.6923 20.3735 34.4081 19.4204 32.2308ZM28.7596 32.2308H31.0673C30.072 33.2423 28.8985 34.0615 27.6058 34.6469C28.0385 33.9315 28.4273 33.1273 28.7596 32.2308Z" fill="url(#paint0_linear_29_455)"/>
<defs>
<linearGradient id="paint0_linear_29_455" x1="9" y1="8" x2="36.6923" y2="8" gradientUnits="userSpaceOnUse">
<stop stop-color="#A2539F"/>
<stop offset="0.4375" stop-color="#665EA8"/>
<stop offset="1" stop-color="#70C5A9"/>
</linearGradient>
</defs>
</svg>
