<svg width="46" height="46" viewBox="0 0 46 46" fill="none" xmlns="http://www.w3.org/2000/svg">
<circle cx="23" cy="23" r="23" fill="white"/>
<path fill-rule="evenodd" clip-rule="evenodd" d="M21.6899 22.1755C16.2355 29.9711 11.7522 36.4084 11.727 36.4805C11.6831 36.6055 13.1454 37.6967 13.3568 37.6967C13.4126 37.6967 15.0406 35.4351 16.9746 32.6708C18.9085 29.9066 20.5095 27.645 20.5323 27.645C20.5551 27.645 20.4878 27.7947 20.3827 27.9777C20.1971 28.3011 20.1997 28.3169 20.4737 28.5417C21.1005 29.0562 23.1568 30.2135 24.1642 30.6189C26.5864 31.5936 29.2566 32 31.7693 31.7762C32.5448 31.7072 33.1928 31.6361 33.2093 31.6183C33.2383 31.5871 34.2049 27.9054 35.4221 23.1902C35.7384 21.9651 36.1981 20.1856 36.4438 19.2358L36.8907 17.5089L34.8495 17.5674C32.507 17.6345 31.298 17.5069 29.5024 17.003L28.3115 16.6688L28.0354 16.9882C27.7077 17.3674 27.8367 17.1788 30.9613 12.7096C32.2902 10.8089 33.3753 9.21547 33.3726 9.16864C33.367 9.06995 31.8276 7.99738 31.6954 8C31.6467 8.00103 27.1443 14.38 21.6899 22.1755ZM11.627 10.5145C11.1297 10.5714 10.6872 10.6582 10.6438 10.7075C10.5687 10.7925 10.3956 11.44 8.98638 16.9078C8.65444 18.1957 8.088 20.3803 7.7275 21.7624C7.36701 23.1445 7.04935 24.3842 7.02137 24.5173C6.97088 24.7584 6.97739 24.759 9.09146 24.701C11.9109 24.6237 13.6064 24.8946 15.8222 25.7765C16.5265 26.0568 16.8701 26.1422 16.9675 26.0613C17.044 25.9978 17.4029 25.5098 17.7649 24.9768L18.4232 24.0077L18.2834 23.0408C17.9013 20.3982 19.3175 17.2576 21.3367 16.2698C21.8482 16.0195 22.058 15.9813 22.7184 16.0187C23.1466 16.0429 23.5801 16.1015 23.6816 16.1489C23.8203 16.2137 23.9715 16.0886 24.2892 15.6464C24.5219 15.3226 24.7326 14.9984 24.7574 14.9261C24.8357 14.698 22.1592 12.8448 20.67 12.0961C19.4952 11.5053 17.712 10.9149 16.4151 10.6873C15.1304 10.4618 12.8179 10.3784 11.627 10.5145ZM27.1471 18.3071C26.7882 18.8253 26.4156 19.3265 26.3188 19.4208C26.1649 19.5709 26.4067 19.2025 27.4242 17.736C27.5658 17.5318 27.7083 17.3647 27.7406 17.3647C27.773 17.3647 27.5059 17.7888 27.1471 18.3071ZM25.909 20.0776C25.7574 20.3132 25.5988 20.7629 25.5564 21.077C25.3621 22.5179 24.6884 24.0496 23.8284 25.0062C23.3379 25.5518 22.1643 26.274 21.7677 26.2745C21.6405 26.2746 21.3969 26.507 21.161 26.853C20.9442 27.1711 20.719 27.4609 20.6606 27.497C20.6021 27.5332 20.6767 27.3871 20.8263 27.1726C23.8565 22.8265 26.0993 19.6492 26.1369 19.6492C26.1632 19.6492 26.0606 19.842 25.909 20.0776ZM37.0898 20.9887C36.9013 21.0156 36.7117 21.0721 36.6684 21.1144C36.5883 21.1926 36.2162 22.5833 34.7531 28.2732C34.3006 30.0323 33.8811 31.633 33.8206 31.8305C33.7115 32.1865 33.7013 32.1906 32.5932 32.3318C31.0786 32.5249 28.2817 32.4173 26.9016 32.1129C24.6988 31.6269 22.7204 30.7926 20.953 29.6043C20.3781 29.2177 19.8597 28.9014 19.8011 28.9014C19.6855 28.9014 18.9278 30.0264 18.999 30.0924C19.0228 30.1145 19.5306 30.4616 20.1274 30.8638C20.7242 31.266 21.6065 31.8814 22.0881 32.2315C24.5993 34.0573 27.6038 35.0988 30.8074 35.254C32.2039 35.3218 34.2328 35.177 34.4049 34.9975C34.4938 34.9049 34.7947 33.7979 35.8914 29.5297C37.1853 24.4943 37.5329 23.1583 37.7844 22.254C37.9363 21.7077 38.0607 21.1809 38.0607 21.0832C38.0607 20.9028 37.8423 20.8816 37.0898 20.9887ZM8.82018 25.7148C8.7481 25.9911 8.56888 26.663 8.42188 27.2079C8.27487 27.7529 8.17504 28.2192 8.20005 28.2442C8.22507 28.2692 8.51588 28.2511 8.84645 28.2041C9.87287 28.058 12.4795 28.0939 13.5024 28.2683C14.0364 28.3593 14.6532 28.4644 14.8731 28.5019C15.2653 28.5687 15.2844 28.5533 15.8844 27.6863C16.6028 26.6486 16.6305 26.7056 15.1447 26.1679C13.7776 25.6733 12.0696 25.3529 10.3987 25.2776L8.95131 25.2125L8.82018 25.7148ZM7.00058 37.8776C7.00606 38.0106 7.03313 38.0377 7.06957 37.9467C7.10258 37.8642 7.09847 37.7656 7.06055 37.7277C7.02262 37.6898 6.99567 37.7572 7.00058 37.8776Z" fill="url(#paint0_linear_29_449)"/>
<defs>
<linearGradient id="paint0_linear_29_449" x1="7" y1="8" x2="38.0607" y2="8" gradientUnits="userSpaceOnUse">
<stop stop-color="#A2539F"/>
<stop offset="0.4375" stop-color="#665EA8"/>
<stop offset="1" stop-color="#70C5A9"/>
</linearGradient>
</defs>
</svg>
