<svg width="47" height="46" viewBox="0 0 47 46" fill="none" xmlns="http://www.w3.org/2000/svg">
<circle cx="23.5" cy="23" r="23" fill="white"/>
<path d="M21.5 8L32.447 11.42C32.7523 11.5153 33.0192 11.7057 33.2086 11.9634C33.398 12.2211 33.5001 12.5327 33.5 12.8525V15.5H36.5C36.8978 15.5 37.2794 15.658 37.5607 15.9393C37.842 16.2206 38 16.6022 38 17V20H18.5V17C18.5 16.6022 18.658 16.2206 18.9393 15.9393C19.2206 15.658 19.6022 15.5 20 15.5H30.5V13.955L21.5 11.141L12.5 13.955V25.061C12.4998 25.9793 12.7104 26.8855 13.1155 27.7096C13.5207 28.5337 14.1097 29.2539 14.837 29.8145L15.1205 30.0185L21.5 34.37L27.173 30.5H20C19.6022 30.5 19.2206 30.342 18.9393 30.0607C18.658 29.7794 18.5 29.3978 18.5 29V23H38V29C38 29.3978 37.842 29.7794 37.5607 30.0607C37.2794 30.342 36.8978 30.5 36.5 30.5L31.67 30.5015C31.0895 31.2665 30.3845 31.9415 29.57 32.4965L21.5 38L13.43 32.498C12.2188 31.6722 11.2276 30.563 10.5427 29.2669C9.85779 27.9708 9.49985 26.527 9.5 25.061V12.8525C9.50018 12.5329 9.60243 12.2217 9.79184 11.9643C9.98126 11.7069 10.2479 11.5167 10.553 11.4215L21.5 8Z" fill="url(#paint0_linear_208_19803)"/>
<defs>
<linearGradient id="paint0_linear_208_19803" x1="9.5" y1="8" x2="38" y2="8" gradientUnits="userSpaceOnUse">
<stop stop-color="#A2539F"/>
<stop offset="0.4375" stop-color="#665EA8"/>
<stop offset="1" stop-color="#70C5A9"/>
</linearGradient>
</defs>
</svg>
