<svg width="46" height="46" viewBox="0 0 46 46" fill="none" xmlns="http://www.w3.org/2000/svg">
<circle cx="23" cy="23" r="23" fill="white"/>
<path fill-rule="evenodd" clip-rule="evenodd" d="M19.165 9.67267V11.3453H20.0323H20.8996V12.2127V13.08H22.5103H24.1211V12.2127V11.3453H24.9264H25.7318V9.67267V8H22.4484H19.165V9.67267ZM11.0185 14.2257C10.4563 14.7909 9.99802 15.308 10 15.3747C10.0021 15.4414 10.4726 15.9978 11.0455 16.6112L12.0871 17.7263L13.2316 16.5887L14.376 15.4512L13.3445 14.3585C12.7771 13.7576 12.2517 13.2506 12.1768 13.2319C12.1019 13.2132 11.5806 13.6603 11.0185 14.2257ZM31.6883 14.3356L30.6444 15.4509L31.789 16.5886L32.9336 17.7263L33.9752 16.6112C34.5481 15.9978 35.0186 15.439 35.0207 15.3694C35.0255 15.205 33.0127 13.2013 32.8535 13.212C32.7869 13.2165 32.2625 13.7221 31.6883 14.3356ZM21.3333 14.1994C17.0003 14.5876 13.0005 17.6673 11.4907 21.7783C10.9042 23.3751 10.8093 23.9756 10.8093 26.0896C10.8093 28.3036 10.9011 28.8203 11.6318 30.7176C12.6908 33.4673 15.3311 36.0929 18.1738 37.2232C20.6201 38.1958 23.8397 38.2603 26.354 37.3872C29.9934 36.1234 32.8519 32.9699 33.8681 29.0972C34.139 28.0651 34.186 27.6208 34.186 26.0896C34.186 24.5541 34.1394 24.1152 33.865 23.0699C32.9756 19.6793 30.7329 16.8894 27.6523 15.3412C26.6008 14.8127 25.0223 14.3394 24.0348 14.2564C23.5712 14.2174 22.9967 14.1687 22.7581 14.1481C22.5196 14.1275 21.8784 14.1506 21.3333 14.1994ZM24.4537 17.6114C26.0607 17.9669 27.848 19.0739 28.9471 20.3947C29.7266 21.3314 30.2221 22.2167 30.6431 23.4257C30.9549 24.3207 30.9884 24.5794 30.9884 26.0896C30.9884 27.5963 30.9544 27.8607 30.6451 28.7535C29.5887 31.8037 27.212 33.96 24.1501 34.6463C23.1762 34.8645 21.3182 34.7987 20.2821 34.5092C18.7461 34.0802 17.7512 33.4805 16.4953 32.2267C15.5864 31.3194 15.2765 30.9084 14.8576 30.0545C14.1788 28.6711 13.9243 27.5699 13.9269 26.0277C13.9294 24.5275 14.162 23.5571 14.862 22.1248C15.5367 20.7445 17.1702 19.0555 18.4835 18.3802C20.4289 17.3801 22.312 17.1376 24.4537 17.6114ZM22.2288 23.2865L18.2922 26.895L19.9546 26.9569L21.6169 27.0189L20.1299 29.7212C19.3121 31.2075 18.6659 32.4464 18.6939 32.4744C18.7514 32.5319 26.5143 25.6188 26.5784 25.453C26.6012 25.3943 25.8624 25.3462 24.9367 25.3462C24.0112 25.3462 23.2538 25.3193 23.2538 25.2865C23.2538 25.2537 23.9255 24.0211 24.7465 22.5476C25.5676 21.0742 26.2228 19.8258 26.2024 19.7734C26.182 19.7208 24.394 21.3018 22.2288 23.2865Z" fill="url(#paint0_linear_29_443)"/>
<defs>
<linearGradient id="paint0_linear_29_443" x1="10" y1="8" x2="35.0207" y2="8" gradientUnits="userSpaceOnUse">
<stop stop-color="#A2539F"/>
<stop offset="0.4375" stop-color="#665EA8"/>
<stop offset="1" stop-color="#70C5A9"/>
</linearGradient>
</defs>
</svg>
