<svg width="1426" height="81" fill="none" xmlns="http://www.w3.org/2000/svg"><path d="M26.569 71.335c-6.46 0-12.16-.988-16.949-2.888-4.788-1.9-8.36-4.332-10.64-7.144-2.204-2.736-4.028-5.548-5.32-8.284-1.292-2.736-2.052-5.168-2.204-7.144L-9 42.303h21.052v.608c0 .076 0 .228.076.456 0 .152.076.532.304 1.444.228.76.456 1.444.76 2.128.304.608.76 1.368 1.444 2.128.684.76 1.52 1.52 2.432 2.052.912.608 2.128 1.064 3.648 1.444 1.52.38 3.268.608 5.168.608 1.9 0 3.649-.152 5.245-.456 1.52-.304 2.812-.684 3.8-1.14a12.882 12.882 0 0 0 2.508-1.52c.684-.532 1.14-1.064 1.444-1.596.304-.608.608-1.14.836-1.596.228-.456.304-.76.38-.988V30.599H15.7V9.242h45.83v36.101c0 .38 0 .912-.077 1.596-.076.684-.304 1.824-.76 3.572a24.37 24.37 0 0 1-1.976 5.092c-.836 1.596-2.128 3.42-3.876 5.396a25.971 25.971 0 0 1-6.232 5.168c-2.356 1.444-5.548 2.66-9.348 3.648-3.8.988-8.056 1.52-12.692 1.52Zm-34.125-27.74.228 2.128c.152 1.824.912 4.104 2.128 6.688 1.216 2.66 2.964 5.32 5.168 8.056 2.128 2.66 5.548 4.94 10.184 6.764 4.636 1.824 10.185 2.812 16.417 2.812 4.56 0 8.74-.456 12.388-1.444 3.724-.912 6.688-2.128 8.968-3.496a26.685 26.685 0 0 0 5.928-4.864c1.672-1.9 2.888-3.572 3.648-5.168.76-1.52 1.368-3.192 1.824-4.864.456-1.672.684-2.812.76-3.42.076-.608.076-1.064.076-1.444V10.534H16.992v18.773H41.39v16.796c-.076.304-.228.76-.456 1.292s-.532 1.064-.912 1.672c-.38.684-.988 1.368-1.824 1.976-.76.608-1.672 1.14-2.736 1.672-1.064.532-2.432.912-4.104 1.292-1.672.304-3.496.456-5.473.456-1.976 0-3.875-.228-5.471-.608-1.673-.38-3.04-.988-4.029-1.672-.988-.684-1.9-1.444-2.66-2.356-.76-.912-1.292-1.672-1.672-2.432a20.172 20.172 0 0 1-.836-2.28c-.228-.836-.304-1.368-.38-1.672H-7.556v.152ZM102.57 71.791c-6.08 0-11.4-.456-15.732-1.292-4.408-.912-8.36-2.28-11.629-4.256-3.344-1.976-5.852-4.712-7.448-8.132s-2.432-7.524-2.432-12.312c0-4.104.684-7.752 1.976-10.868 1.292-3.116 3.116-5.7 5.32-7.6 2.204-1.9 4.94-3.42 8.132-4.637a48.86 48.86 0 0 1 9.957-2.432c3.344-.456 7.22-.684 11.324-.684 4.256 0 8.132.228 11.552.532a50.45 50.45 0 0 1 10.336 2.28c3.496 1.14 6.384 2.66 8.664 4.56 2.28 1.9 4.18 4.485 5.624 7.6 1.444 3.117 2.128 6.917 2.128 11.097 0 4.788-.912 8.968-2.584 12.388-1.748 3.42-4.408 6.156-7.828 8.208-3.42 1.976-7.372 3.344-11.78 4.256-4.332.912-9.576 1.292-15.58 1.292Zm-.456-50.845c-4.104 0-7.904.228-11.172.608-3.344.456-6.536 1.216-9.652 2.356-3.117 1.14-5.7 2.584-7.753 4.409-2.052 1.748-3.724 4.18-4.94 7.144-1.292 2.964-1.9 6.46-1.9 10.412 0 4.636.76 8.588 2.28 11.78 1.52 3.192 3.876 5.7 6.992 7.6 3.116 1.9 6.916 3.268 11.173 4.104 4.332.836 9.5 1.292 15.504 1.292 5.852 0 11.02-.38 15.352-1.216 4.256-.836 8.132-2.204 11.4-4.104 3.192-1.824 5.7-4.408 7.296-7.676 1.672-3.268 2.508-7.22 2.508-11.78 0-4.028-.684-7.6-2.052-10.564-1.368-2.964-3.116-5.396-5.244-7.145-2.204-1.747-4.94-3.268-8.284-4.332-3.344-1.14-6.688-1.824-10.032-2.204-3.42-.532-7.296-.684-11.476-.684Zm.684 36.709c-5.396 0-9.424-.988-12.008-2.964-2.66-2.052-4.029-5.168-4.029-9.348 0-1.672.38-3.268 1.065-4.636.684-1.368 1.596-2.508 2.66-3.344 1.064-.836 2.356-1.52 3.8-2.052s2.812-.912 4.18-1.14c1.368-.228 2.736-.304 4.104-.304 1.9 0 3.648.152 5.32.456 1.672.304 3.42.912 5.168 1.672 1.824.76 3.268 2.052 4.408 3.724 1.064 1.672 1.672 3.724 1.672 6.08 0 4.332-1.444 7.448-4.332 9.196-2.812 1.748-6.84 2.66-12.008 2.66Zm-.304-22.572c-1.292 0-2.584.076-3.876.304-1.292.228-2.584.532-3.952 1.064-1.292.456-2.432 1.14-3.42 1.9a9.247 9.247 0 0 0-2.356 2.964c-.608 1.216-.912 2.584-.912 4.104 0 3.8 1.14 6.536 3.496 8.284 2.356 1.824 6.156 2.736 11.248 2.736 4.94 0 8.74-.836 11.248-2.432 2.508-1.596 3.724-4.256 3.724-8.132 0-2.128-.456-3.952-1.444-5.396s-2.28-2.584-3.8-3.268c-1.672-.76-3.268-1.216-4.864-1.52-1.596-.456-3.268-.608-5.092-.608ZM165.575 71.335h-21.433v-51.3h21.433v51.3Zm-20.141-1.292h18.849V21.326h-18.849v48.717Zm20.141-52.669h-21.433V6.354h21.433v11.02Zm-20.141-1.292h18.849V7.57h-18.849v8.512ZM240.208 71.335h-21.433V50.891c0-.608-.076-1.444-.152-2.584-.076-1.14-.228-1.976-.304-2.66a48.27 48.27 0 0 0-.684-2.432c-.304-.912-.608-1.672-1.064-2.204-.38-.608-.912-1.216-1.596-1.9-.608-.608-1.292-1.14-2.128-1.52-.836-.38-1.824-.684-2.964-.912a19.697 19.697 0 0 0-3.876-.38c-3.572 0-6.46.532-8.588 1.52-2.052.988-4.028 2.432-5.776 4.256V71.41h-21.584v-51.3h21.584v6.307c1.368-.988 2.508-1.672 3.268-2.204.988-.608 2.432-1.368 4.332-2.204a25.715 25.715 0 0 1 6.08-1.824c2.128-.38 4.636-.532 7.448-.532 2.736 0 5.168.152 7.22.38a31.39 31.39 0 0 1 6.613 1.444c2.356.684 4.408 1.9 6.232 3.42 1.748 1.52 3.192 3.496 4.18 5.852 1.368 3.193 2.28 7.297 2.584 12.16.304 4.865.456 12.92.456 23.941v4.484h.152Zm-20.141-1.292h18.849V66.7c0-10.944-.152-19-.456-23.864-.304-4.788-1.14-8.74-2.508-11.78-.912-2.129-2.204-3.953-3.876-5.397-1.596-1.444-3.572-2.508-5.7-3.116a35.728 35.728 0 0 0-6.385-1.368c-2.052-.228-4.408-.304-7.068-.304-2.736 0-5.168.152-7.22.532a20.428 20.428 0 0 0-5.776 1.748c-1.824.836-3.192 1.52-4.18 2.128a53.858 53.858 0 0 0-4.256 2.888l-.988.76v-7.524h-19v48.641h19V41.467l.152-.152c1.976-1.976 4.104-3.572 6.384-4.636 2.28-1.14 5.396-1.672 9.12-1.672 1.444 0 2.888.151 4.104.38 1.216.303 2.356.608 3.268 1.064.912.456 1.748 1.064 2.508 1.748.684.684 1.292 1.368 1.672 2.052a9.09 9.09 0 0 1 1.216 2.584c.304 1.064.532 1.9.684 2.584.152.684.304 1.672.38 2.812.076 1.216.152 2.052.152 2.66v19.152h-.076ZM314.157 71.563c-2.812 0-5.168-.076-6.992-.304-1.9-.228-3.648-.684-5.168-1.444-1.596-.76-2.812-1.748-3.724-2.888-.836-1.14-1.596-2.736-2.204-4.864-.608-2.052-.988-4.408-1.14-6.992-.152-2.508-.228-5.776-.228-9.728v-9.348h-10.033v-16.34h10.033V9.242h21.356v10.489h24.472v16.34h-24.472v9.88c0 .152 0 .456.076 1.216.076.608.152 1.14.304 1.672s.38 1.064.684 1.748c.304.608.608 1.14 1.064 1.596.456.456.988.76 1.748 1.064.76.304 1.52.456 2.432.456 1.444 0 2.964-.076 4.56-.304 1.672-.228 3.116-.456 4.408-.76 1.292-.304 2.508-.608 3.648-.912 1.14-.304 1.976-.608 2.66-.76.076 0 .152-.076.228-.076l-.152-.228h1.596l.076.456 7.372 16.036-.608.228c-.912.38-2.204.76-3.876 1.216-1.748.456-5.244 1.064-10.868 1.824-5.548.76-11.324 1.14-17.252 1.14ZM285.96 34.78h10.033v10.64c0 3.876.076 7.144.228 9.652.152 2.508.532 4.712 1.064 6.688.532 1.9 1.216 3.42 1.976 4.408.76.988 1.824 1.824 3.192 2.508 1.444.684 3.04 1.14 4.788 1.292 1.824.228 4.104.304 6.916.304 5.852 0 11.628-.38 17.1-1.14 5.472-.76 9.044-1.368 10.716-1.824a27.176 27.176 0 0 0 3.116-.912l-6.612-14.364c-.152 0-.228.076-.38.152-.684.228-1.596.456-2.66.76a90.19 90.19 0 0 1-3.724.912c-1.368.304-2.888.532-4.56.76a34.904 34.904 0 0 1-4.712.304c-1.064 0-2.052-.152-2.888-.532-.912-.38-1.596-.836-2.128-1.368-.532-.532-.988-1.216-1.368-1.976-.304-.76-.608-1.368-.76-1.976-.152-.608-.228-1.216-.304-1.9-.076-.684-.076-1.064-.076-1.292V34.703h24.472V20.947h-24.472V10.459h-18.772v10.488h-10.033v13.832h-.152ZM420.255 71.335h-21.433V50.967c0-.608 0-1.444-.076-2.584-.076-1.14-.152-1.976-.304-2.584-.152-.608-.38-1.444-.608-2.432-.304-.912-.608-1.672-.988-2.204-.38-.608-.912-1.216-1.52-1.9a6.27 6.27 0 0 0-1.976-1.52c-.76-.38-1.672-.684-2.736-.912a16.99 16.99 0 0 0-3.496-.38c-7.828 0-13.68 1.672-17.328 5.016v30.02h-21.432V9.698h21.432v16.948c6.308-4.484 13.984-6.764 22.8-6.764 2.128 0 4.028.076 5.624.152s3.496.304 5.548.76c2.128.38 3.952.988 5.548 1.672 1.597.684 3.117 1.748 4.561 3.116 1.444 1.369 2.584 2.965 3.344 4.865 1.292 3.192 2.128 7.524 2.508 12.92.38 5.32.532 13.224.532 23.636v4.332Zm-20.141-1.292h18.849V66.7c0-10.336-.152-18.316-.532-23.56-.38-5.168-1.216-9.424-2.432-12.54a12.727 12.727 0 0 0-3.04-4.409c-1.292-1.216-2.737-2.204-4.181-2.888-1.444-.684-3.268-1.216-5.244-1.596a64.945 64.945 0 0 0-5.396-.76 112.84 112.84 0 0 0-5.548-.152c-8.968 0-16.72 2.432-23.028 7.296l-1.064.76V10.61H349.65v59.433h18.848v-29.26l.228-.228c3.876-3.648 10.108-5.548 18.392-5.548 1.368 0 2.66.152 3.8.38 1.14.304 2.204.608 3.04.988.912.38 1.672.988 2.356 1.824.684.76 1.216 1.444 1.596 2.052.456.684.836 1.52 1.14 2.584.304.988.532 1.9.684 2.584.152.684.228 1.672.304 2.812.076 1.216.076 2.052.076 2.66v19.152ZM460.003 71.335c-5.928 0-11.096-.38-15.428-1.216-4.408-.836-8.056-1.976-10.792-3.42-2.812-1.444-5.092-3.344-6.84-5.624a20.692 20.692 0 0 1-3.572-7.22c-.608-2.508-.988-5.472-.988-8.816 0-8.208 3.192-14.745 9.5-19.38 6.232-4.56 15.504-6.84 27.664-6.84 5.928 0 11.248.531 15.581 1.595 4.408 1.064 8.36 2.812 11.628 5.168 3.344 2.433 5.776 5.777 7.296 9.957 1.52 4.104 2.052 9.12 1.596 14.896l-.076.608h-50.997c.532.988 1.748 1.824 3.572 2.584 2.432.912 6.232 1.444 11.172 1.444 4.408 0 8.816-.304 13.148-.836 4.333-.532 7.677-1.14 9.881-1.748l3.724-.988 9.196 14.896-.532.38c-.228.152-.532.304-1.064.532-.532.228-1.672.608-3.572 1.14-1.9.532-4.028.988-6.384 1.368-2.356.38-5.7.76-9.881 1.064-4.104.228-8.816.456-13.832.456Zm-.456-51.3c-11.856 0-20.9 2.203-26.904 6.611-5.928 4.332-8.968 10.489-8.968 18.317 0 3.192.304 6.08.912 8.512.608 2.356 1.748 4.636 3.344 6.764 1.596 2.128 3.724 3.876 6.384 5.244 2.66 1.368 6.156 2.508 10.412 3.344 4.256.76 9.424 1.216 15.2 1.216 5.016 0 9.652-.152 13.756-.456 4.181-.304 7.449-.684 9.805-1.064a56.554 56.554 0 0 0 6.308-1.368c1.824-.532 2.964-.836 3.42-1.064.076-.076.228-.076.304-.152l-8.056-12.996-2.812.76c-2.28.608-5.624 1.14-10.033 1.748-4.408.608-8.892.836-13.376.836-5.092 0-9.044-.532-11.628-1.52-2.736-1.064-4.332-2.508-4.636-4.256l-.152-.76h51.529c.38-5.32-.152-9.956-1.596-13.756-1.444-3.952-3.724-7.068-6.84-9.348-3.116-2.28-6.916-3.953-11.172-5.017-4.257-1.064-9.349-1.596-15.201-1.596ZM475.28 42.15h-32.225v-.608c0-.836.304-1.672.836-2.432s1.292-1.52 2.432-2.28c1.14-.76 2.812-1.368 5.168-1.9 2.28-.456 5.092-.684 8.284-.684 5.548 0 9.424.684 11.856 1.976 2.509 1.368 3.725 3.192 3.725 5.32v.608h-.076Zm-30.857-1.292h29.489c-.228-1.368-1.217-2.508-3.041-3.572-2.204-1.216-5.928-1.824-11.248-1.824-3.116 0-5.776.228-7.98.684-2.128.456-3.724.988-4.712 1.672-.988.684-1.672 1.292-2.052 1.976-.228.38-.38.76-.456 1.064ZM615.425 71.335h-21.128v-6.84c-5.092 4.484-12.312 6.764-21.356 6.764-7.828 0-14.06-.836-18.544-2.584-4.561-1.748-7.981-5.016-10.185-9.728-1.596-3.344-2.66-7.524-3.192-12.388s-.76-12.236-.76-22.04l.076-4.636h21.129v17.404c0 1.444 0 2.508.076 3.268 0 .76.152 1.748.304 3.116.228 1.292.456 2.356.76 3.04.304.76.836 1.596 1.52 2.584.684.912 1.444 1.596 2.356 2.128.988.532 2.204.912 3.724 1.368 1.52.38 3.268.608 5.244.608 6.84 0 13.072-2.508 18.696-7.524V19.883h21.128v51.452h.152Zm-19.836-1.292h18.62V21.175h-18.62v25.232l-.228.228c-5.928 5.32-12.54 8.056-19.76 8.056-2.052 0-3.952-.228-5.548-.608a18.862 18.862 0 0 1-4.028-1.444 7.327 7.327 0 0 1-2.812-2.508c-.76-1.064-1.292-1.976-1.672-2.812-.38-.836-.684-1.976-.836-3.42-.228-1.368-.304-2.508-.38-3.268 0-.76-.076-1.824-.076-3.344V21.175h-18.621l-.076 3.344c0 9.728.228 17.1.76 21.888.532 4.712 1.52 8.74 3.04 12.008 2.052 4.408 5.244 7.448 9.425 9.044 4.332 1.672 10.412 2.508 18.012 2.508 9.424 0 16.644-2.508 21.584-7.448l1.064-1.064v8.588h.152ZM688.919 71.335h-21.433V50.891c0-.608-.076-1.444-.152-2.584-.076-1.14-.228-1.976-.304-2.66a48.27 48.27 0 0 0-.684-2.432c-.304-.912-.608-1.672-1.064-2.204-.38-.608-.912-1.216-1.596-1.9-.608-.608-1.292-1.14-2.128-1.52-.836-.38-1.824-.684-2.964-.912a19.697 19.697 0 0 0-3.876-.38c-3.572 0-6.46.532-8.588 1.52-2.052.988-4.028 2.432-5.776 4.256V71.41H618.77v-51.3l22.344.227-.608 6.005a76.558 76.558 0 0 1 3.192-2.128h.076c10.868-4.864 27.893-7.296 40.053 1.672l.076.076.076.076c1.064 1.52 2.204 3.268 2.812 5.32.76 2.584 1.292 6.308 1.596 11.552.304 4.864.456 12.92.456 23.94v4.484h.076Zm-20.141-1.292h18.849V66.7c0-10.944-.152-19-.456-23.864-.304-5.168-.836-8.74-1.596-11.248-.532-1.824-1.52-3.42-2.584-4.864-7.296-5.396-21.813-9.044-38.685-1.52a57.717 57.717 0 0 0-4.18 2.812l-1.14.836.76-7.448-19.608-.229v48.87h19V41.466l.152-.152c1.976-1.976 4.104-3.572 6.384-4.636 2.28-1.14 5.396-1.672 9.12-1.672 1.444 0 2.888.152 4.104.38 1.216.304 2.356.608 3.268 1.064.912.456 1.748 1.064 2.508 1.748.684.684 1.292 1.368 1.672 2.052a9.09 9.09 0 0 1 1.216 2.584c.304 1.064.532 1.9.684 2.584.152.684.304 1.672.38 2.812.076 1.216.152 2.052.152 2.66v19.152ZM736.344 71.563c-9.501 0-17.101-1.748-22.573-5.244v4.788h-21.432V40.1c1.444-6.232 4.104-12.54 6.232-17.556.228-.456.38-.988.608-1.445 2.204-5.244 3.876-8.968 3.952-8.968l.152-.38h.38c2.508-.152 5.016-.304 7.448-.456 4.028-.304 8.284-.608 12.464-.608h.912l-.304.836c-.912 2.736-1.748 5.396-2.584 7.98-.684 2.129-1.368 4.409-2.128 6.613 18.469-7.905 33.061-8.589 44.613-1.976 7.22 4.104 9.804 13.072 6.004 20.824-.152.684-.228 1.444-.38 2.052-.608 3.42-1.14 6.308-2.052 8.968-1.14 3.192-2.66 5.776-4.56 7.676-1.9 1.976-4.332 3.572-7.22 4.788-2.888 1.216-5.852 2.052-8.968 2.432-3.116.456-6.688.684-10.564.684Zm-23.941-7.676.988.684c5.32 3.8 12.996 5.7 22.876 5.7 3.877 0 7.373-.228 10.337-.608 2.964-.456 5.928-1.216 8.664-2.356 2.736-1.14 5.016-2.66 6.764-4.484 1.748-1.824 3.192-4.256 4.256-7.22.912-2.508 1.444-5.396 2.052-8.74.152-.684.228-1.444.38-2.204v-.076l.076-.076c3.572-7.144 1.216-15.428-5.472-19.228-11.476-6.537-26.069-5.7-44.765 2.584l-1.368.608.456-1.369c.912-2.736 1.748-5.396 2.584-7.98.76-2.356 1.52-4.712 2.28-7.144-3.876 0-7.6.304-11.476.608-2.28.152-4.712.38-7.068.456-.456 1.064-1.976 4.256-3.724 8.589-.228.456-.38.912-.608 1.444-2.128 5.015-4.712 11.172-6.156 17.328v29.564h18.848v-6.08h.076Zm19.912-7.372c-5.624 0-9.956-.456-12.768-1.292-2.964-.912-5.32-2.736-6.992-5.396l-.152-.228 1.064-6.992.076-.152c3.496-4.712 11.628-7.296 24.093-7.752 3.344-.456 6.688-.076 9.196 1.216 3.876 2.128 2.888 6.84 2.28 9.652-1.368 7.448-6.688 10.944-16.797 10.944Zm-18.544-7.144c1.52 2.356 3.572 3.876 6.156 4.636 2.736.836 6.916 1.216 12.464 1.216 9.349 0 14.289-3.116 15.429-9.88.684-3.42 1.216-6.764-1.596-8.284-2.204-1.064-5.32-1.52-8.437-1.064h-.075c-11.933.456-19.685 2.812-23.029 7.144l-.912 6.232ZM802.084 72.247c-2.356 0-4.332 0-6.004-.076-1.672-.076-3.724-.228-6.156-.456-2.432-.228-4.56-.532-6.232-.988-1.672-.38-3.496-1.064-5.396-1.824-1.9-.836-3.496-1.824-4.712-3.04-1.216-1.216-2.204-2.736-2.964-4.56-.76-1.824-1.14-3.876-1.14-6.08 0-2.888.912-5.396 2.812-7.448 1.672-1.9 4.408-3.04 8.968-3.8 14.516-1.596 30.857-3.42 45.753 1.216-7.828-8.512-20.977-7.068-33.745-5.7-4.864.532-9.424.988-13.528.912h-.684l.076-.684c.076-1.216 0-2.66 0-3.952-.152-3.724-.304-7.296 1.9-8.588 6.232-4.409 15.276-5.852 26.981-4.256 7.676 1.292 14.744 2.888 22.192 4.636 4.408 1.064 8.968 2.128 13.68 3.04 4.408.836 7.98 3.344 10.032 7.068 2.128 3.876 2.28 8.664.532 13.072-1.444 5.168-4.94 11.932-9.348 20.216l-.152.38h-22.116l.304-.836c.304-.912.608-1.9.988-2.964-8.056 3.268-14.896 4.712-22.041 4.712Zm-20.672-26.904c-4.256.684-6.764 1.672-8.208 3.344-1.672 1.824-2.508 4.104-2.508 6.612 0 2.052.38 3.876 1.064 5.548.684 1.672 1.596 3.04 2.736 4.104 1.064 1.064 2.508 1.976 4.332 2.736 1.824.76 3.572 1.368 5.168 1.748 1.596.38 3.648.684 6.08.912 2.432.228 4.408.38 6.08.456 1.672.076 3.648.076 6.004.076 7.373 0 14.365-1.52 22.573-5.016l1.216-.532-.38 1.292c-.304 1.216-.684 2.356-1.064 3.42h19.532c4.256-8.132 7.676-14.668 9.044-19.684v-.076c1.672-4.104 1.52-8.436-.456-12.008-1.824-3.344-5.092-5.624-9.12-6.384-4.712-.988-9.272-2.052-13.68-3.116-7.448-1.748-14.44-3.344-22.116-4.636-11.325-1.596-20.141-.228-26.069 4.028h-.076c-1.52.912-1.368 4.256-1.292 7.448.076 1.14.076 2.356.076 3.42 3.876 0 8.208-.456 12.692-.912 13.301-1.444 28.273-3.04 36.329 7.904l1.216 1.672-1.976-.684c-15.048-5.244-32.073-3.344-47.197-1.672Zm24.625 14.896c-7.905-.304-12.237-1.292-13.529-2.964-.38-.532-.456-1.064-.304-1.672l.076-.304.304-.152c10.108-4.408 22.877-2.736 34.125-.532l1.216.228-.836.836c-4.104 4.104-10.792 4.256-16.796 4.332-1.52.152-2.888.152-4.256.228Zm-12.541-3.952c0 .076.076.152.152.228.456.608 2.508 2.052 12.464 2.432 1.369-.076 2.737-.152 4.257-.152 5.244-.076 11.096-.228 14.896-3.116-10.64-1.976-22.497-3.268-31.769.608Z" fill="#ffffff61"/><path d="M914.49 73.083c-2.432 0-5.168-.38-8.056-.684-2.356-.304-4.788-.608-6.992-.684h-.912l.304-.836c1.216-3.192 3.116-6.232 5.016-9.196 3.724-5.928 7.22-11.476 6.004-18.24-.532-3.116-3.496-4.788-8.968-5.168-7.068-.304-14.82-.076-17.708 5.32-1.368 2.812-2.432 6.004-3.42 9.044-2.356 6.84-4.712 13.984-10.412 18.012-3.724 2.812-9.273 2.128-14.593 1.444-2.28-.304-4.712-.608-6.916-.608h-1.14l.532-.988c9.272-16.416 13.909-30.476 14.593-44.308v-.532l.531-.076c4.789-.532 9.653-1.292 14.365-1.976 2.356-.38 4.788-.76 7.22-1.064l.76-.076v6.08c6.384-3.572 13.3-6.004 19.684-6.916 8.284-1.14 15.428.228 21.28 4.104l.076.076c1.825 1.596 3.268 3.724 4.333 6.308v.076c1.9 6.536 1.976 14.136.228 21.432-1.748 7.068-5.093 13.376-9.501 17.784-1.216 1.216-3.496 1.672-6.308 1.672Zm-14.06-2.66c1.976.152 4.104.38 6.232.608 5.548.684 11.248 1.368 13.528-.76 4.18-4.18 7.448-10.336 9.196-17.176 1.749-6.992 1.673-14.364-.227-20.748-.988-2.356-2.281-4.256-3.953-5.776-12.084-7.905-28.88-3.42-40.584 3.42l-.988.532v-6.84c-2.128.304-4.332.684-6.46.988-4.56.684-9.272 1.444-13.909 1.976-.76 13.528-5.32 27.36-14.212 43.32 1.976.076 3.952.304 5.928.608 5.32.684 10.337 1.292 13.681-1.216 5.32-3.8 7.6-10.412 9.956-17.328 1.064-3.116 2.128-6.308 3.496-9.196 3.192-6.08 11.4-6.308 18.924-6.004 6.08.38 9.5 2.508 10.108 6.232 1.216 7.22-2.584 13.3-6.232 19.152-1.596 2.736-3.268 5.472-4.484 8.208Z" fill="#ffffff61"/><path d="M940.255 73.843c-2.052 0-4.256-.228-6.536-.456-2.204-.228-4.485-.456-6.613-.456h-1.064l.456-.912c9.881-19.228 11.553-42.256 4.561-63.08l-.304-.837h.911c1.521 0 3.193-.076 4.865-.228 5.168-.304 9.956-.608 12.084 1.672 6.156 6.84 6.612 18.013 6.992 27.817 0 .608.076 1.216.076 1.824 1.672-1.976 3.268-3.876 4.864-5.776 1.216-1.52 2.508-3.04 3.8-4.56 4.484-5.776 8.512-11.704 8.512-11.78l.152-.229.228-.075c8.36-1.825 16.796-.456 24.701 1.064l.988.227-.608.837c-3.8 5.016-8.209 9.804-12.541 14.364-3.496 3.724-7.068 7.524-10.336 11.476a531.443 531.443 0 0 1 6.308 7.144c5.32 6.08 10.792 12.388 16.949 17.86l1.292 1.14h-1.672c-3.496 0-7.069.532-10.565 1.064-6.232.912-12.084 1.748-17.404-.076-2.66-.988-4.484-4.104-6.156-7.068-1.596-2.812-3.116-5.472-5.016-5.776-2.812-.532-4.712 2.812-6.764 6.384-1.368 2.432-2.736 4.94-4.56 6.308-1.976 1.672-4.636 2.128-7.6 2.128Zm-12.161-2.128a71.95 71.95 0 0 1 5.701.456c5.32.532 10.336 1.064 13.224-1.368 1.596-1.216 2.964-3.648 4.256-5.928 2.128-3.8 4.332-7.752 8.132-7.068 2.508.456 4.18 3.344 5.928 6.384 1.596 2.812 3.268 5.7 5.472 6.536 5.016 1.748 10.716.912 16.796 0 3.04-.456 6.081-.912 9.121-.988-5.777-5.244-10.869-11.172-15.885-16.872-2.204-2.508-4.408-5.092-6.688-7.524l-.38-.38.38-.456c3.344-4.18 7.068-8.132 10.716-12.008 4.028-4.332 8.209-8.74 11.857-13.453-7.373-1.367-15.201-2.508-22.877-.912-.76 1.14-4.408 6.385-8.436 11.629-1.292 1.52-2.584 3.116-3.8 4.56-1.9 2.28-3.876 4.712-5.928 7.068l-1.064 1.216-.076-1.596c-.076-1.14-.076-2.28-.152-3.496-.38-10.108-.836-20.52-6.612-27.057-1.672-1.9-6.46-1.596-11.096-1.292-1.368.076-2.736.152-4.028.228 6.536 20.597 4.94 43.169-4.561 62.321Z" fill="#ffffff61"/><path d="M1032.44 74.68c-16.18 0-31.61-4.485-37.541-19.609-2.964-7.6-2.128-17.708 1.9-24.624 3.041-5.168 7.601-8.284 13.301-9.12l.38-.077c3.65-.608 8.28-1.291 13.6-1.444 10.95-1.216 22.8 2.508 31.01 9.805 6.84 6.08 10.64 14.212 10.64 22.876v.608h-.61c-16.18.228-31.76.228-48.26.228 6.69 5.092 15.96 3.952 24.93 2.812 5.25-.684 10.19-1.292 14.59-.76 2.89.38 4.64 4.408 6.54 8.74.76 1.748 1.6 3.496 2.43 5.016l.46.76-.84.228c-9.04 2.28-20.97 4.56-32.53 4.56Zm-4.1-53.81c-1.37 0-2.74.076-4.1.229h-.08c-5.32.151-9.8.835-13.45 1.444l-.38.076c-5.32.76-9.58 3.724-12.39 8.512-3.877 6.612-4.561 16.264-1.749 23.484 5.629 14.516 20.599 18.848 36.329 18.848 11.1 0 22.5-2.128 31.39-4.332-.76-1.368-1.45-2.888-2.05-4.408-1.68-3.724-3.42-7.676-5.55-7.98-4.26-.532-9.12.076-14.29.76-9.88 1.216-20.14 2.508-27.28-4.256l-1.14-1.14h1.59c16.87 0 32.83 0 49.33-.228-.23-10.26-5.63-17.252-10.19-21.28-6.99-6.157-16.64-9.729-25.99-9.729Zm-13.98 23.789h-.76l.15-.76c1.14-7.372 10.79-7.524 14.89-7.6 5.25-.152 9.12.456 11.71 1.824h.07c1.98 1.216 4.26 2.66 4.56 5.244l.08.684h-.68c-10.19.608-19.84.608-30.02.608Zm15.58-7.068h-1.3c-5.92.076-12.16.912-13.52 5.776 9.65 0 18.77 0 28.27-.456-.53-1.596-2.13-2.66-3.73-3.648-2.12-1.14-5.39-1.672-9.72-1.672ZM1090.96 72.4c-3.57 0-7.22-.305-10.79-.989-2.81-.532-5.24-2.204-6.84-4.636V66.7c-3.65-6.612-5.85-12.464-6.84-17.784-1.21-6.916-.23-12.996 2.97-17.86 4.18-6.536 11.24-10.64 20.9-12.16 8.21-1.293 17.25-.608 24.39.227L1110.5 4.15l.68-.152c4.64-.76 9.43-1.444 14.06-2.204 2.13-.304 4.26-.684 6.31-.988l.61-.076.15.608c4.26 18.62 7.37 39.293 9.8 64.981l.08.684h-.68c-2.51 0-5.02-.076-7.45-.152-3.65-.152-7.37-.228-11.1-.076h-.76l.08-.76c.15-.836 0-1.672-.15-2.66-.08-.456-.16-.988-.16-1.444-5.16 4.332-11.7 7.524-19 9.196a56.42 56.42 0 0 1-12.01 1.292Zm-16.56-6.309c1.44 2.128 3.57 3.572 6 4.104 7.52 1.444 15.28 1.292 22.42-.304 7.6-1.748 14.29-5.092 19.53-9.804l1.3-1.216-.23 1.748c-.15.836 0 1.672.15 2.66.08.76.23 1.52.15 2.28 3.5-.076 6.99 0 10.49.152 2.2.076 4.48.152 6.69.152-2.36-25.004-5.4-45.296-9.58-63.537-1.9.304-3.8.608-5.77.912-4.41.684-8.9 1.368-13.38 2.052l4.33 15.428-.99-.076c-7.22-.835-16.56-1.671-25-.303-9.43 1.52-15.96 5.244-20.07 11.552-3.04 4.636-4.02 10.336-2.81 16.948 1.07 5.016 3.19 10.716 6.77 17.252Zm23.86-9.804c-3.04 0-5.93-.836-8.59-3.04-3.49-2.964-4.25-8.436-1.67-12.16 6.46-9.652 20.98-12.692 30.48-6.384 2.2 1.444 2.51 3.876 2.73 6.308.08.912.16 1.9.38 2.812l.08.228-.08.228c-1.21 3.116-3.11 5.472-5.77 6.992l-.08.076c-1.06.38-2.13.836-3.27 1.292-4.56 1.672-9.5 3.648-14.21 3.648Zm8.74-23.636c-1.52 0-3.11.152-4.71.532-5.55 1.14-10.41 4.332-13.23 8.588-2.2 3.192-1.52 7.98 1.45 10.488 6.16 5.092 14.29 1.9 21.51-.988 1.14-.456 2.2-.836 3.27-1.292 2.28-1.292 4.02-3.344 5.09-6.08-.23-.912-.31-1.9-.38-2.812-.23-2.204-.38-4.256-2.13-5.32-3.12-2.052-6.92-3.116-10.87-3.116ZM1205.27 80.455h-7.83c-2.2 0-4.48-.38-6.23-1.14-2.28-.912-3.65-2.356-3.88-4.028-.91-4.256.54-8.588 1.98-12.768.23-.608.38-1.14.61-1.748l.3-.836.69.456c5.32 3.648 11.93 5.016 20.14 4.256 6.84-.608 13.83-2.66 19.83-4.712-3.49-2.128-8.74-.76-13.37.456-1.75.456-3.42.912-4.94 1.14-2.13.304-4.26.456-6.24.456-10.33 0-18.39-4.028-23.02-11.552-3.04-5.32-6.01-13.072-3.12-19.912 2.2-5.244 7.75-4.408 12.69-3.724 1.37.228 2.66.38 3.88.456 5.47.152 11.25-1.064 16.79-2.28 9.35-2.053 19.01-4.105 27.29.836l.08.076c.98.76.76 3.648.6 5.32-.38 3.192-1.59 7.296-3.57 8.132-5.77 2.66-12.92 3.116-19.76 3.648-6.46.456-13.07.988-18.47 3.192.76.608 3.42 1.368 12.09.152 3.26-.304 6.61-.988 9.8-1.672 6.99-1.444 14.21-2.964 21.36-.836 3.19 1.14 6 3.724 7.6 7.22 1.67 3.572 1.97 7.676.76 10.868-2.97 8.284-9.81 13.68-20.98 16.34-7.9 1.976-17.1 2.204-25.08 2.204Zm-14.36-18.468c-.08.304-.23.608-.31.988-1.37 4.028-2.81 8.208-1.97 12.084v.076c.45 2.964 5.54 4.104 8.89 4.104h3.72c18.01.076 42.64.228 49.02-17.632 1.07-2.888.84-6.612-.68-9.88-1.52-3.192-3.95-5.548-6.84-6.536-6.84-2.052-13.91-.532-20.67.836-3.27.684-6.62 1.368-9.96 1.748-8.82 1.216-13.38.76-13.83-1.52l-.08-.532.46-.228c5.62-2.584 12.69-3.116 19.53-3.648 6.76-.532 13.76-.988 19.38-3.572.91-.456 1.9-2.356 2.43-5.092.69-3.268.54-5.776.23-6.156-7.83-4.637-16.8-2.736-26.22-.608-5.62 1.216-11.48 2.508-17.18 2.28a40.666 40.666 0 0 1-4.02-.456c-4.72-.684-9.5-1.444-11.33 2.888-2.66 6.384.23 13.68 3.04 18.772 7.07 11.552 20.52 11.552 27.97 10.488 1.44-.228 3.12-.684 4.79-1.14 5.39-1.444 11.55-3.04 15.5.532l.84.76-1.06.38c-6.39 2.128-13.84 4.484-21.29 5.168-8.28.684-14.97-.684-20.36-4.104ZM1262.42 67.611c-1.29 0-2.35-.228-3.19-.912-4.03-3.116-5.24-9.272-6.31-15.124-.53-2.736-1.06-5.548-1.9-8.132-3.57-11.78-5.85-23.788-5.92-23.94l-.16-.684.69-.076c6.91-1.14 13.98-2.66 20.82-4.18l.69-.153.07.684c1.52 9.577 3.88 19.229 6.23 28.5 1.6 6.385 3.2 12.997 4.56 19.61l.16.683-.69.076c-2.13.38-4.56 1.064-6.84 1.824-3.04.912-5.93 1.824-8.21 1.824Zm-15.96-47.729c.54 2.66 2.66 12.997 5.78 23.105.84 2.584 1.37 5.472 1.9 8.208 1.14 5.928 2.2 11.552 5.85 14.364 1.9 1.52 6.01.228 10.26-1.14 2.13-.684 4.26-1.368 6.31-1.748-1.37-6.384-2.89-12.768-4.41-18.924-2.28-9.12-4.56-18.544-6.15-27.969-6.46 1.596-13.08 3.04-19.54 4.104Zm-1.9-3.496-1.06-10.792 22.19-3.8.84 10.336-21.97 4.256Zm.38-9.804.76 8.208 19.54-3.8-.69-7.752-19.61 3.344ZM1354.31 80.455l-.99-.304c-7.6-2.432-13.6-5.092-18.92-8.284-1.07-.684-1.14-2.128-1.14-3.648 0-.532 0-1.064-.08-1.596-2.96 1.292-6.16.836-9.2.38-.3-.076-.68-.076-.98-.152h-.08c-1.82-.38-3.57-1.064-5.24-1.672-1.6-.608-3.27-1.292-5.02-1.672-1.37-.228-2.81-.456-4.18-.608-9.65-1.444-19.61-2.888-26.07-11.172-8.81-11.324-8.43-19.912-6.53-25.08 2.2-5.7 7.37-9.957 14.06-11.705 7.22-2.128 14.89-2.736 22.19-1.672 7.37 1.064 14.06 3.8 19.38 7.904l.53-14.744.76.228c1.06.304 2.28.532 3.5.836 7.9 1.9 13.14 3.268 13.6 5.624 2.28 12.16 2.43 24.625 2.58 36.633.16 9.804.23 19.912 1.52 29.868l.31.836Zm-20.14-15.808.23.836c.22.836.22 1.824.22 2.736 0 1.14 0 2.28.54 2.584 5.01 3.04 10.64 5.548 17.7 7.904-1.14-9.652-1.29-19.456-1.44-28.956-.15-12.008-.3-24.396-2.58-36.405-.38-1.748-7.76-3.496-12.7-4.636a72.3 72.3 0 0 1-2.73-.684l-.61 15.732-.99-.836c-5.24-4.408-12.08-7.296-19.68-8.436-7.15-.988-14.59-.456-21.66 1.596-6.31 1.672-11.17 5.624-13.23 10.944-1.74 4.865-2.12 12.997 6.39 23.865 6.15 7.904 15.43 9.272 25.23 10.716 1.37.228 2.81.38 4.26.608 1.82.38 3.57 1.064 5.24 1.672 1.6.608 3.27 1.292 5.02 1.672.3.076.68.076.98.152 3.27.456 6.31.912 9.2-.608l.61-.456Zm-6.69-12.996c-.3 0-.68 0-1.06-.076-2.66-.456-5.17-1.292-7.6-2.052-2.82-.912-5.78-1.9-8.9-2.28-5.39-.608-9.8-3.648-11.55-7.828-.45-1.14-1.21-3.496-.99-5.928.16-2.357 1.14-4.029 2.82-4.94 4.78-2.66 10.79-3.192 16.72-1.52 5.77 1.595 10.94 5.244 14.28 9.956 1.6 2.356 1.6 4.864 1.6 7.372 0 1.292 0 2.584.23 3.8l.07.228-.15.228c-1.37 1.976-3.19 3.04-5.47 3.04Zm-.84-1.368c2.13.304 3.8-.456 5.02-2.204-.23-1.292-.15-2.584-.15-3.8 0-2.356 0-4.636-1.37-6.612-6.61-9.425-20.06-13.149-29.26-8.057-3.12 1.673-2.28 6.613-1.29 9.273 1.21 2.964 4.63 6.384 10.56 7.068 3.27.456 6.23 1.368 9.12 2.356 2.36.76 4.79 1.52 7.37 1.976ZM1384.25 79.771c-7.6 0-14.36-2.052-20.52-6.156-4.48-3.04-7.6-7.448-9.04-13.072-1.22-4.636-1.37-9.956-.53-15.884 1.52-8.74 8.28-15.96 17.78-18.848 4.03-1.369 8.74-2.28 14.52-2.889 10.11-2.508 21.43-.076 28.73 6.157 4.18 3.572 8.96 9.956 7.98 20.14l-.08.456-.46.076c-15.42 3.724-31.38 7.6-47.57 9.424 1.75 3.04 6.08 3.42 9.57 3.192 5.25-.38 10.34-2.356 15.2-4.256 4.79-1.824 9.28-3.572 13.84-3.952 2.88-.228 5.39 3.42 8.13 7.22 1.06 1.52 2.13 3.04 3.19 4.332l.53.608-.76.38c-9.04 4.484-19.38 9.576-29.94 11.856a46.531 46.531 0 0 1-10.57 1.216Zm10.42-56.544c-2.66 0-5.32.303-7.91.988h-.07c-5.63.532-10.26 1.52-14.29 2.812-9.05 2.736-15.51 9.576-16.95 17.86-2.43 16.188 3.57 24.016 8.97 27.664 19.07 12.844 41.19 2.204 59.13-6.612-.92-1.14-1.9-2.508-2.82-3.8-2.35-3.344-4.78-6.84-6.99-6.688-4.41.38-8.81 2.052-13.53 3.876-5.01 1.9-10.18 3.952-15.58 4.332-7.6.532-10.26-2.356-11.24-4.788l-.31-.76.84-.076c16.26-1.748 32.37-5.624 47.88-9.424.68-9.348-3.73-15.276-7.6-18.544-4.94-4.409-12.24-6.84-19.53-6.84Zm-22.2 26.676v-.76c.31-7.296 9.2-8.588 14.52-9.424 5.24-.76 8.89-.608 11.17.304 2.13.912 3.65 2.736 4.18 4.788l.15.684-.68.152c-8.59 1.596-17.94 2.964-28.65 4.104l-.69.152Zm14.67-8.892c-6.38.912-12.61 2.28-13.3 7.448 10.03-1.14 18.93-2.356 27.06-3.876-.53-1.444-1.75-2.66-3.19-3.268-2.06-.912-5.63-.988-10.57-.304Z" fill="#ffffff61"/></svg>